<?xml version="1.0" encoding="UTF-8" standalone="no"?>
<svg width="25px" height="25px" viewBox="0 0 25 25" version="1.1" xmlns="http://www.w3.org/2000/svg" xmlns:xlink="http://www.w3.org/1999/xlink" xmlns:sketch="http://www.bohemiancoding.com/sketch/ns">
    <!-- Generator: Sketch 3.2.2 (9983) - http://www.bohemiancoding.com/sketch -->
    <title>clock</title>
    <desc>Created with Sketch.</desc>
    <defs></defs>
    <g id="Page-1" stroke="none" stroke-width="1" fill="none" fill-rule="evenodd" sketch:type="MSPage">
        <g id="Artboard-1" sketch:type="MSArtboardGroup" fill="#FFFFFF">
            <path d="M4.013,4.014 C6.356,1.671 9.185,0.5 12.5,0.5 C15.814,0.5 18.643,1.671 20.986,4.014 C23.328,6.356 24.5,9.186 24.5,12.5 C24.5,15.814 23.329,18.644 20.986,20.986 C18.643,23.329 15.814,24.5 12.5,24.5 C9.185,24.5 6.356,23.329 4.014,20.986 C1.672,18.643 0.5,15.814 0.5,12.5 C0.5,9.186 1.671,6.356 4.013,4.014 L4.013,4.014 Z M17.805,17.806 L19.222,16.389 L14.333,11.5 L12.5,3.5 L10.5,3.5 L10.5,12.5 C10.5,13.056 10.694,13.527 11.083,13.916 C11.157,13.99 11.268,14.083 11.416,14.194 L17.805,17.806 L17.805,17.806 Z" id="clock" sketch:type="MSShapeGroup"></path>
        </g>
    </g>
</svg>