<?xml version="1.0" encoding="UTF-8" standalone="no"?>
<svg width="123px" height="128px" viewBox="0 0 123 128" version="1.1" xmlns="http://www.w3.org/2000/svg" xmlns:xlink="http://www.w3.org/1999/xlink" xmlns:sketch="http://www.bohemiancoding.com/sketch/ns">
    <!-- Generator: Sketch 3.2.2 (9983) - http://www.bohemiancoding.com/sketch -->
    <title>icon-128</title>
    <desc>Created with Sketch.</desc>
    <defs></defs>
    <g id="Page-1" stroke="none" stroke-width="1" fill="none" fill-rule="evenodd" sketch:type="MSPage">
        <g id="Artboard-6" sketch:type="MSArtboardGroup" transform="translate(-3.000000, 0.000000)" fill="#3E9AF5">
            <g id="icon-128" sketch:type="MSLayerGroup" transform="translate(3.000000, 0.000000)">
                <g id="Page-1" sketch:type="MSShapeGroup">
                    <g id="Logo">
                        <path d="M61.4122791,34.4050515 C70.7660425,34.4050515 78.3487659,26.8596468 78.3487659,17.5519183 C78.3487659,8.2441899 70.7660425,0.698785185 61.4122791,0.698785185 C52.0585157,0.698785185 44.4757922,8.2441899 44.4757922,17.5519183 C44.4757922,26.8596468 52.0585157,34.4050515 61.4122791,34.4050515 L61.4122791,34.4050515 Z M61.4122791,122.249164 L101.198503,127.647578 C106.583453,128.376179 111.727424,125.178941 113.423544,120.038766 C115.119665,114.898591 112.885976,109.288053 108.115831,106.69952 L80.2302545,91.5649027 L81.5834434,70.0019921 L87.5492143,82.7263843 C87.966293,83.6117733 88.5378454,84.4233799 89.2329766,85.11509 L108.010789,103.800486 C109.660567,105.442145 111.823198,106.262975 113.985828,106.262975 C116.148459,106.262975 118.311089,105.442145 119.960868,103.800486 C123.260424,100.517169 123.260424,95.1925381 119.960868,91.9092206 L102.236565,74.2721494 L90.805518,49.7271995 C87.7005984,43.498734 83.1868795,39.5913403 76.4332931,39.5913403 L46.391265,39.5913403 C39.6376787,39.5913403 35.1239597,43.498734 32.0190401,49.7271995 L20.5879928,74.1891441 L2.86369053,91.8692552 C-0.435865834,95.1525726 -0.435865834,100.498723 2.86369053,103.782041 C4.5134687,105.4237 6.67609928,106.256826 8.83872985,106.256826 C11.0013604,106.256826 13.163991,105.439071 14.8137692,103.797412 L33.5915815,85.11509 C34.2867127,84.4233799 34.8551756,83.6148476 35.2722544,82.7294586 L41.2380253,70.0050664 L42.5943036,91.567977 L14.7087271,106.69952 C9.9354925,109.291128 7.70180406,114.901666 9.4010138,120.038766 C11.0971341,125.178941 16.2411054,128.376179 21.6260555,127.647578 L61.4122791,122.249164 L61.4122791,122.249164 Z" id="Oval"></path>
                    </g>
                </g>
            </g>
        </g>
    </g>
</svg>