<?xml version="1.0" encoding="UTF-8" standalone="no"?>
<svg width="40px" height="42px" viewBox="0 0 40 42" version="1.1" xmlns="http://www.w3.org/2000/svg" xmlns:xlink="http://www.w3.org/1999/xlink" xmlns:sketch="http://www.bohemiancoding.com/sketch/ns">
    <!-- Generator: Sketch 3.2.2 (9983) - http://www.bohemiancoding.com/sketch -->
    <title>Logo</title>
    <desc>Created with Sketch.</desc>
    <defs></defs>
    <g id="Page-1" stroke="none" stroke-width="1" fill="none" fill-rule="evenodd" sketch:type="MSPage">
        <g id="Artboard-1" sketch:type="MSArtboardGroup" transform="translate(-5.000000, -4.000000)" fill="#3E9AF5">
            <g id="Logo" sketch:type="MSLayerGroup" transform="translate(5.000000, 3.500000)">
                <g id="Page-1" sketch:type="MSShapeGroup">
                    <g id="Logo">
                        <path d="M20.16,11.701 C23.187625,11.701 25.642,9.246625 25.642,6.219 C25.642,3.191375 23.187625,0.737 20.16,0.737 C17.132375,0.737 14.678,3.191375 14.678,6.219 C14.678,9.246625 17.132375,11.701 20.16,11.701 L20.16,11.701 Z M20.16,40.275 L33.038,42.031 C34.781,42.268 36.446,41.228 36.995,39.556 C37.544,37.884 36.821,36.059 35.277,35.217 L26.251,30.294 L26.689,23.28 L28.62,27.419 C28.755,27.707 28.94,27.971 29.165,28.196 L35.243,34.274 C35.777,34.808 36.477,35.075 37.177,35.075 C37.877,35.075 38.577,34.808 39.111,34.274 C40.179,33.206 40.179,31.474 39.111,30.406 L33.374,24.669 L29.674,16.685 C28.669,14.659 27.208,13.388 25.022,13.388 L15.298,13.388 C13.112,13.388 11.651,14.659 10.646,16.685 L6.946,24.642 L1.209,30.393 C0.141,31.461 0.141,33.2 1.209,34.268 C1.743,34.802 2.443,35.073 3.143,35.073 C3.843,35.073 4.543,34.807 5.077,34.273 L11.155,28.196 C11.38,27.971 11.564,27.708 11.699,27.42 L13.63,23.281 L14.069,30.295 L5.043,35.217 C3.498,36.06 2.775,37.885 3.325,39.556 C3.874,41.228 5.539,42.268 7.282,42.031 L20.16,40.275 L20.16,40.275 Z" id="Oval"></path>
                    </g>
                </g>
            </g>
        </g>
    </g>
</svg>