<?xml version="1.0" encoding="UTF-8" standalone="no"?>
<svg width="17px" height="18px" viewBox="0 0 17 18" version="1.1" xmlns="http://www.w3.org/2000/svg" xmlns:xlink="http://www.w3.org/1999/xlink" xmlns:sketch="http://www.bohemiancoding.com/sketch/ns">
    <!-- Generator: Sketch 3.2.2 (9983) - http://www.bohemiancoding.com/sketch -->
    <title>Logo 2</title>
    <desc>Created with Sketch.</desc>
    <defs></defs>
    <g id="Page-1" stroke="none" stroke-width="1" fill="none" fill-rule="evenodd" sketch:type="MSPage">
        <g id="Artboard-6" sketch:type="MSArtboardGroup" transform="translate(-5.000000, -4.000000)" fill="#3E9AF5">
            <g id="Logo-2" sketch:type="MSLayerGroup" transform="translate(5.000000, 3.500000)">
                <g id="Page-1" sketch:type="MSShapeGroup">
                    <g id="Logo">
                        <path d="M8.408,5.24702105 C9.63425557,5.24702105 10.6283321,4.23741845 10.6283321,2.99201053 C10.6283321,1.7466026 9.63425557,0.737 8.408,0.737 C7.18174443,0.737 6.18766788,1.7466026 6.18766788,2.99201053 C6.18766788,4.23741845 7.18174443,5.24702105 8.408,5.24702105 L8.408,5.24702105 Z M8.408,17.0008829 L13.6238769,17.7232103 C14.3298307,17.8206998 15.0041928,17.3928977 15.22655,16.7051236 C15.4489072,16.0173495 15.1560761,15.2666392 14.5307217,14.920284 L10.8749907,12.8952171 L11.0523904,10.0100212 L11.8344885,11.7125912 C11.8891665,11.8310595 11.9640956,11.9396554 12.0552256,12.0322087 L14.516951,14.5323827 C14.7332329,14.7520426 15.0167485,14.8618726 15.3002641,14.8618726 C15.5837797,14.8618726 15.8672953,14.7520426 16.0835772,14.5323827 C16.5161409,14.0930629 16.5161409,13.3806079 16.0835772,12.9412881 L13.7599644,10.5813838 L12.2613819,7.29718021 C11.8543345,6.46378887 11.262597,5.94096537 10.3772183,5.94096537 L6.43878169,5.94096537 C5.553403,5.94096537 4.96166545,6.46378887 4.55461806,7.29718021 L3.05603564,10.5702774 L0.732422843,12.9359406 C0.299859052,13.3752604 0.299859052,14.0905948 0.732422843,14.5299146 C0.948704739,14.7495745 1.23222033,14.8610499 1.51573593,14.8610499 C1.79925152,14.8610499 2.08276711,14.7516313 2.29904901,14.5319714 L4.7607744,12.0322087 C4.85190441,11.9396554 4.92642851,11.8314708 4.98110652,11.7130025 L5.76320454,10.0104326 L5.94100932,12.8956284 L2.28527825,14.920284 C1.65951883,15.2670505 1.36668773,16.0177609 1.58944998,16.7051236 C1.81180721,17.3928977 2.4861693,17.8206998 3.19212313,17.7232103 L8.408,17.0008829 L8.408,17.0008829 Z" id="Oval"></path>
                    </g>
                </g>
            </g>
        </g>
    </g>
</svg>