<?xml version="1.0" encoding="UTF-8" standalone="no"?>
<svg width="31px" height="26px" viewBox="0 0 31 26" version="1.1" xmlns="http://www.w3.org/2000/svg" xmlns:xlink="http://www.w3.org/1999/xlink" xmlns:sketch="http://www.bohemiancoding.com/sketch/ns">
    <!-- Generator: Sketch 3.2.2 (9983) - http://www.bohemiancoding.com/sketch -->
    <title>panda</title>
    <desc>Created with Sketch.</desc>
    <defs></defs>
    <g id="Page-1" stroke="none" stroke-width="1" fill="none" fill-rule="evenodd" sketch:type="MSPage">
        <g id="Artboard-1" sketch:type="MSArtboardGroup" transform="translate(-9.000000, -12.000000)" fill="#FFFFFF">
            <path d="M24.461,34.385 C21.39,34.385 18.635,33.273 16.666,31.518 C14.696,29.756 13.525,27.392 13.523,24.789 C13.523,23.877 13.669,22.978 13.943,22.158 L14.304,21.073 L13.337,20.464 C12.489,19.93 11.912,18.973 11.915,17.91 C11.916,17.079 12.248,16.339 12.793,15.792 C13.339,15.248 14.079,14.915 14.91,14.915 L14.915,14.915 C15.854,14.915 16.712,15.364 17.267,16.055 L18.009,16.978 L19.064,16.441 C20.649,15.635 22.493,15.178 24.479,15.178 L24.481,15.178 C26.395,15.178 28.186,15.608 29.731,16.36 L30.753,16.857 L31.485,15.987 C32.037,15.333 32.836,14.93 33.703,14.93 L33.706,14.93 L33.755,14.93 C34.586,14.931 35.325,15.263 35.872,15.808 C36.416,16.354 36.749,17.094 36.75,17.925 C36.749,18.937 36.253,19.822 35.483,20.365 L34.583,20.998 L34.945,22.037 C35.247,22.904 35.404,23.82 35.405,24.789 C35.403,27.392 34.231,29.756 32.261,31.518 C30.293,33.274 27.536,34.385 24.464,34.385 L24.461,34.385 M14.91,12 C11.646,12.001 9.001,14.645 9,17.91 C9.002,19.624 9.737,21.166 10.894,22.246 C10.705,23.071 10.608,23.925 10.608,24.789 C10.606,28.292 12.21,31.455 14.726,33.693 C17.245,35.938 20.687,37.299 24.464,37.3 C28.24,37.299 31.683,35.938 34.201,33.693 C36.718,31.455 38.321,28.292 38.32,24.789 C38.32,23.849 38.207,22.931 37.986,22.047 C39.026,20.983 39.665,19.523 39.665,17.925 C39.663,14.661 37.019,12.016 33.755,12.015 L33.706,12.015 C32.327,12.015 31.057,12.509 30.059,13.32 C28.348,12.636 26.458,12.263 24.479,12.263 C22.432,12.262 20.48,12.66 18.72,13.392 C17.691,12.529 16.359,12.001 14.91,12" id="panda" sketch:type="MSShapeGroup"></path>
        </g>
    </g>
</svg>